Coordinates
version=1
nRows=20
nColumns=38
inDegrees=no

Units are S.I. units (second, meters, Newtons, ...)
If the header above contains a line with 'inDegrees', this indicates whether rotational values are in degrees (yes) or radians (no).

endheader
time	pelvis_tilt	pelvis_list	pelvis_rotation	pelvis_tx	pelvis_ty	pelvis_tz	hip_flexion_r	hip_adduction_r	hip_rotation_r	knee_angle_r	ankle_angle_r	subtalar_angle_r	mtp_angle_r	hip_flexion_l	hip_adduction_l	hip_rotation_l	knee_angle_l	ankle_angle_l	subtalar_angle_l	mtp_angle_l	lumbar_extension	lumbar_bending	lumbar_rotation	arm_flex_r	arm_add_r	arm_rot_r	elbow_flex_r	pro_sup_r	wrist_flex_r	wrist_dev_r	arm_flex_l	arm_add_l	arm_rot_l	elbow_flex_l	pro_sup_l	wrist_flex_l	wrist_dev_l
14.72	-2.79225	1.3257	-2.12752	0.782575	-0.999349	0.947907	-0.355266	-0.093304	-0.698132	0.248507	0.523599	0	0	0.168581	-0.0295528	-0.368846	0.348322	-0.0918569	0	0	-0.388974	-0.0745488	0.229824	0.321023	-0.53872	0.246751	2.06137	0.545401	0	0	0.0778273	-0.31281	-0.204302	2.08874	0.872657	0	0
14.73	-2.762	1.32622	-2.15531	0.784564	-1.00139	0.94714	-0.361306	-0.0501158	-0.604439	0.14723	0.172234	0	0	0.158559	-0.0278652	-0.284123	0.314693	-0.109251	0	0	-0.385545	-0.0850685	0.226285	0.303186	-0.53198	0.240239	2.07527	0.577353	0	0	0.0638495	-0.322009	-0.209569	2.11104	0	0	0
14.74	-2.76194	1.30929	-2.14063	0.781602	-1.00339	0.949826	-0.358172	-0.100299	-0.698132	0.263552	0.523599	0	0	0.174839	-0.0280955	-0.426914	0.377176	-0.111815	0	0	-0.406611	-0.0859515	0.207982	0.293461	-0.5371	0.234735	2.09121	0.575131	0	0	0.050376	-0.318361	-0.215161	2.12216	0	0	0
14.75	-2.78043	1.32721	-2.14264	0.784393	-1.00326	0.946968	-0.362782	-0.0467963	-0.598014	0.142872	0.172399	0	0	0.179733	-0.0379959	-0.381671	0.366509	-0.096909	0	0	-0.384829	-0.0788856	0.232608	0.268708	-0.539577	0.226072	2.10763	0.564629	0	0	0.0259042	-0.31813	-0.220192	2.13872	0	0	0
14.76	-2.77906	1.31071	-2.13435	0.782035	-1.00733	0.950334	-0.365217	-0.0944301	-0.698132	0.231973	0.523599	0	0	0.177363	-0.038608	-0.43396	0.383614	-0.119498	0	0	-0.41071	-0.0828193	0.219124	0.263187	-0.543903	0.216092	2.12114	0.522191	0	0	0.0194385	-0.313033	-0.223551	2.14946	0.872657	0	0
14.77	-2.94267	1.29657	-2.01852	0.79067	-1.00814	0.952204	-0.416363	-0.0186414	-0.534914	0.10831	0.150045	0	0	0.120811	-0.077716	-0.443178	0.370848	-0.0950882	0	0	-0.437948	-0.0724075	0.271127	0.244906	-0.546405	0.207632	2.1417	0.519755	0	0	0.00254546	-0.316391	-0.229019	2.17552	0.872657	0	0
14.78	-2.93785	1.29636	-2.03368	0.791673	-1.01229	0.953177	-0.415453	-0.0201658	-0.551228	0.0935364	0.13668	0	0	0.101831	-0.0764707	-0.348817	0.322386	-0.124024	0	0	-0.44493	-0.0789164	0.280306	0.233689	-0.548568	0.198799	2.15552	0.517226	0	0	-0.00604224	-0.313606	-0.232577	2.18265	0.872657	0	0
14.79	-2.99784	1.31755	-1.96885	0.789567	-1.00768	0.951814	-0.384752	-0.0408729	-0.687691	0.20713	0.523599	0	0	0.14456	-0.110411	-0.525689	0.430282	-0.0478439	0	0	-0.412483	-0.0537608	0.286086	0.186333	-0.541009	0.165223	2.15607	0.507321	0	0	-0.0400471	-0.304614	-0.226036	2.20011	0.872657	0	0
14.8	-2.90202	1.28559	-2.05997	0.790828	-1.01704	0.955314	-0.41466	-0.0315328	-0.562475	0.0983232	0.137847	0	0	0.114861	-0.0748097	-0.402124	0.350933	-0.146509	0	0	-0.460424	-0.0909406	0.268044	0.203857	-0.549525	0.181752	2.1833	0.538413	0	0	-0.0291488	-0.314185	-0.240583	2.20139	0	0	0
14.81	-2.99258	1.31921	-1.98356	0.790217	-1.01175	0.950388	-0.400055	-0.00079299	-0.543406	0.0929055	0.142902	0	0	0.134404	-0.10041	-0.472914	0.362455	-0.0523127	0	0	-0.419302	-0.0487682	0.297437	0.162045	-0.566202	0.168973	2.20865	0.535762	0	0	-0.0681959	-0.302495	-0.240699	2.2098	0	0	0
14.82	-2.9364	1.32968	-2.03071	0.789694	-1.01288	0.950574	-0.381017	-0.00696904	-0.553295	0.0965932	0.143467	0	0	0.156325	-0.0964951	-0.433194	0.370764	-0.108953	0	0	-0.400843	-0.0646066	0.289445	0.130927	-0.545912	0.13524	2.20083	0.504444	0	0	-0.0819941	-0.30486	-0.234214	2.23232	0.872657	0	0
14.83	-2.96606	1.31004	-2.00669	0.790974	-1.01606	0.952456	-0.400423	-0.00797276	-0.549625	0.0952233	0.141605	0	0	0.112699	-0.0951722	-0.335584	0.326111	-0.122346	0	0	-0.433258	-0.0612184	0.292839	0.131178	-0.565258	0.148868	2.23398	0.522098	0	0	-0.0899652	-0.305561	-0.246342	2.2338	0	0	0
14.84	-2.96805	1.31075	-2.00387	0.791018	-1.01721	0.952658	-0.398418	-0.00665055	-0.551511	0.0955566	0.142036	0	0	0.127931	-0.0988561	-0.346706	0.352056	-0.122515	0	0	-0.433932	-0.060021	0.293298	0.114093	-0.56765	0.140465	2.24719	0.521003	0	0	-0.104341	-0.305317	-0.250573	2.24213	0	0	0
14.85	-3.0221	1.3332	-1.94868	0.790487	-1.0163	0.949837	-0.382693	0.0159841	-0.548296	0.0947193	0.144416	0	0	0.162043	-0.12882	-0.350287	0.390738	-0.0954971	0	0	-0.412083	-0.0346568	0.301406	0.0884001	-0.575579	0.1302	2.26494	0.518745	0	0	-0.126967	-0.301837	-0.25291	2.25213	0	0	0
14.86	-3.03559	1.29963	-1.94218	0.791869	-1.01676	0.955052	-0.397791	-0.0336948	-0.669378	0.198909	0.523599	0	0	0.121854	-0.117431	-0.46556	0.392818	-0.106146	0	0	-0.447803	-0.0470603	0.304556	0.0738242	-0.57602	0.121554	2.2752	0.504967	0	0	-0.138203	-0.302947	-0.25499	2.25821	0.872657	0	0
14.87	-2.95835	1.30679	-2.01816	0.791117	-1.01952	0.953926	-0.397552	-0.0133949	-0.550243	0.0981213	0.145267	0	0	0.121658	-0.0950113	-0.346604	0.346082	-0.130975	0	0	-0.438104	-0.0639456	0.299753	0.0623266	-0.576841	0.11572	2.28511	0.508914	0	0	-0.146868	-0.304316	-0.258147	2.26487	0	0	0
14.88	-2.96571	1.31722	-2.00328	0.788488	-1.0189	0.952707	-0.387679	-0.00896536	-0.559218	0.102182	0.148702	0	0	0.166828	-0.128974	-0.586862	0.470707	-0.0667171	0	0	-0.427036	-0.049506	0.296833	0.0422759	-0.586675	0.106913	2.30006	0.506538	0	0	-0.16408	-0.298632	-0.258709	2.27019	0	0	0
14.89	-2.97861	1.29353	-1.98659	0.788725	-1.02036	0.956942	-0.39012	-0.0559521	-0.698132	0.214701	0.523599	0	0	0.0975204	-0.0878247	-0.342231	0.322711	-0.146683	0	0	-0.456342	-0.0558473	0.2911	0.0316432	-0.58734	0.101091	2.30949	0.518398	0	0	-0.170164	-0.300449	-0.258111	2.27544	0.872657	0	0
14.9	-2.9635	1.32674	-1.99694	0.787616	-1.02148	0.952422	-0.374546	-0.00185334	-0.564748	0.103617	0.146691	0	0	0.135764	-0.10116	-0.372326	0.323742	-0.138405	0	0	-0.422867	-0.0428515	0.293156	0.0135449	-0.592467	0.0910439	2.32227	0.492453	0	0	-0.184048	-0.299814	-0.258642	2.28282	0	0	0
14.91	-2.95638	1.32082	-1.98777	0.787633	-1.02156	0.953094	-0.376674	0.000354665	-0.551714	0.115477	0.158056	0	0	0.147948	-0.102542	-0.462738	0.350635	-0.0967132	0	0	-0.428427	-0.0441238	0.277817	-0.000212035	-0.588376	0.0862506	2.33073	0.490558	0	0	-0.194163	-0.307811	-0.263282	2.29355	0	0	0
